Poster: 
http://imgr.us/images/m4q138mta7uvv9gx3t6a.jpg

Info:

Format : AVI
Format/Info : Audio Video Interleave
File size : 1.33 GiB
Duration : 1h 43mn
Overall bit rate : 1 835 Kbps
Writing library : VirtualDub build 33848/release

Video
ID : 0
Format : MPEG-4 Visual
Format profile : Advanced Simple@L5
Format settings, BVOP : 2
Format settings, QPel : No
Format settings, GMC : No warppoints
Format settings, Matrix : Default (H.263)
Muxing mode : Packed bitstream
Codec ID : XVID
Codec ID/Hint : XviD
Duration : 1h 43mn
Bit rate : 1 695 Kbps
Width : 720 pixels
Height : 352 pixels
Display aspect ratio : 2.045
Frame rate : 29.970 fps
Color space : YUV
Chroma subsampling : 4:2:0
Bit depth : 8 bits
Scan type : Progressive
Compression mode : Lossy
Bits/(Pixel*Frame) : 0.223
Stream size : 1.23 GiB (92%)
Writing library : XviD 64

Audio
ID : 1
Format : MPEG Audio
Format version : Version 1
Format profile : Layer 3
Mode : Joint stereo
Mode extension : MS Stereo
Codec ID : 55
Codec ID/Hint : MP3
Duration : 1h 43mn
Bit rate mode : Constant
Bit rate : 128 Kbps
Channel(s) : 2 channels
Sampling rate : 44.1 KHz
Compression mode : Lossy
Stream size : 94.9 MiB (7%)
Alignment : Split accross interleaves
Interleave, duration : 33 ms (1.00 video frame)
Interleave, preload duration : 500 ms
Writing library : LAME3.99r
Encoding settings : -m j -V 4 -q 3 -lowpass 17 -b 128

Screens: 
http://www.shotpix.com/images/91402078073090946171.png 
http://www.shotpix.com/images/41624214873276775813.png 
http://www.shotpix.com/images/59094742011526396985.png 
http://www.shotpix.com/images/65545700828059658837.png 
http://www.shotpix.com/images/85651217044123717384.png 
http://www.shotpix.com/images/69216636333370716750.png




